# Blender 3.5.1
# www.blender.org
mtllib leaf.mtl
o Plane
v 0.124963 0.165814 0.175031
v -0.125036 0.166072 0.174750
v 0.500646 0.860676 0.208183
v 0.501496 1.507528 0.046857
v -0.498502 1.508563 0.045733
v -0.499353 0.861711 0.207059
v 0.002516 2.106499 -0.309087
v 0.024963 0.165917 0.174919
v -0.025036 0.165969 0.174863
v 0.000048 0.141744 0.077863
v -0.024354 0.861219 0.207593
v 0.025646 0.861167 0.207649
v 0.000730 0.836994 0.110593
v -0.023503 1.508071 0.046267
v 0.026497 1.508019 0.046323
v 0.001581 1.483846 -0.050733
v -0.000012 -0.000012 -0.000050
vn -0.0007 0.3197 0.9475
vn -0.0005 0.5014 0.8652
vn -0.7532 0.2388 0.6129
vn 0.7584 0.0654 0.6485
vn 0.7524 0.2372 0.6146
vn -0.0010 0.1501 0.9887
vn -0.7597 0.0670 0.6468
vn 0.7017 -0.2631 0.6621
vn -0.0013 -0.2235 0.9747
vn -0.0007 0.3167 0.9485
vn -0.0010 0.0849 0.9964
vn -0.0014 -0.3477 0.9376
vn -0.7038 -0.2616 0.6605
vn -0.0015 -0.6688 0.7434
vt 0.000000 0.000000
vt 0.000000 1.000000
vt 0.333333 0.000000
vt 0.666667 0.000000
vt 0.666667 1.000000
vt 0.333333 1.000000
vt 1.000000 1.000000
vt 1.000000 0.500000
vt 0.000000 0.400000
vt 0.000000 0.600000
vt 0.000000 0.500000
vt 0.333333 0.525000
vt 0.333333 0.475000
vt 0.333333 0.500000
vt 0.666667 0.500000
vt 0.666667 0.525000
vt 0.666667 0.475000
vt 0.666667 0.500000
vt 0.000000 0.600000
vt 0.000000 0.000000
vt 0.000000 0.400000
vt 0.000000 0.500000
s 1
f 4/4/1 7/8/2 15/17/3
f 11/12/4 14/16/5 5/5/1 6/6/6
f 3/3/6 4/4/1 15/17/3 12/13/7
f 14/16/5 7/7/2 5/5/1
f 9/10/8 11/12/4 6/6/6 2/2/9
f 14/15/5 16/18/10 7/8/2
f 16/18/10 15/17/3 7/8/2
f 14/16/5 11/12/4 13/14/11 16/18/10
f 16/18/10 13/14/11 12/13/7 15/17/3
f 11/12/4 9/10/8 10/11/12 13/14/11
f 13/14/11 10/11/12 8/9/13 12/13/7
f 1/1/9 3/3/6 12/13/7 8/9/13
f 9/10/8 2/2/9 17/19/14
f 1/1/9 8/9/13 17/20/14
f 8/9/13 10/11/12 17/21/14
f 10/11/12 9/10/8 17/22/14
